Coordinates
version=1
nRows=15
nColumns=46
inDegrees=yes

Units are S.I. units (second, meters, Newtons, ...)
Angles are in degrees.

endheader
time	pelvis_tilt	pelvis_list	pelvis_rotation	pelvis_tx	pelvis_ty	pelvis_tz	bb_angle	bb_tx	bb_ty	bb_tz	hip_flexion_r	hip_adduction_r	hip_rotation_r	knee_angle_r	knee_angle_r_beta	ankle_angle_r	subtalar_angle_r	mtp_angle_r	crank_angle_r	hip_flexion_l	hip_adduction_l	hip_rotation_l	knee_angle_l	knee_angle_l_beta	ankle_angle_l	subtalar_angle_l	mtp_angle_l	crank_angle_l	lumbar_extension	lumbar_bending	lumbar_rotation	arm_flex_r	arm_add_r	arm_rot_r	elbow_flex_r	pro_sup_r	wrist_flex_r	wrist_dev_r	arm_flex_l	arm_add_l	arm_rot_l	elbow_flex_l	pro_sup_l	wrist_flex_l	wrist_dev_l
      7.50000000	    -26.73107264	      7.39571190	     12.41369804	      0.39439759	      1.08062194	     -0.23856812	      0.00000000	      0.50000000	      0.00000000	      0.25000000	     30.87279986	    -15.95261579	     -2.59949406	     35.95645031	      0.62755845	    -21.16632609	     -3.65704729	      0.00000000	      0.00000000	     79.50707302	      4.19126802	     -1.21813840	    103.29356238	      1.80281276	     16.65296530	      4.99093894	      0.00000000	      0.00000000	    -45.95237535	     -9.21480737	    -15.32150342	     60.17174082	     -2.78336233	     27.87199120	     24.55241994	     47.23621173	      0.00000000	      0.00000000	     51.51120968	    -13.39251227	     22.63070340	     65.06396016	     48.84385367	      0.00000000	      0.00000000
      7.50500000	    -26.53625736	      6.87156773	     12.74764986	      0.39447722	      1.08201231	     -0.23850083	      0.00000000	      0.50000000	      0.00000000	      0.25000000	     31.01722306	    -15.52402040	     -2.68804112	     37.92850348	      0.66197727	    -20.86528470	     -3.94489478	      0.00000000	      0.00000000	     78.82443525	      4.31253579	     -1.00723790	    101.37740752	      1.76936955	     17.45866217	      4.64614325	      0.00000000	      0.00000000	    -46.09347617	     -9.08156460	    -14.48730697	     59.89702844	     -2.96123579	     25.29626207	     24.13326468	     46.35225583	      0.00000000	      0.00000000	     52.26921738	    -11.16004850	     21.89797837	     62.96737404	     47.90993641	      0.00000000	      0.00000000
      7.51000000	    -26.26177024	      6.19796951	     12.88961230	      0.39463614	      1.08321268	     -0.23808581	      0.00000000	      0.50000000	      0.00000000	      0.25000000	     31.26426006	    -14.83166217	     -2.66717290	     40.08512039	      0.69961733	    -20.74020669	     -4.31414044	      0.00000000	      0.00000000	     77.98184571	      4.22024014	     -0.58619223	     99.41178838	      1.73506302	     18.36624067	      4.20148588	      0.00000000	      0.00000000	    -46.32250535	     -8.78338458	    -14.14915599	     59.97194916	     -2.98014632	     25.26398201	     23.97646369	     46.33305162	      0.00000000	      0.00000000	     52.29758546	    -10.91223181	     21.86116791	     63.07276578	     47.92156474	      0.00000000	      0.00000000
      7.51500000	    -26.02113147	      5.47964599	     13.00101204	      0.39489932	      1.08451400	     -0.23791213	      0.00000000	      0.50000000	      0.00000000	      0.25000000	     31.53400208	    -14.08061947	     -2.57130698	     42.08688705	      0.73455475	    -20.79128652	     -4.49050445	      0.00000000	      0.00000000	     77.03487736	      4.07059170	     -0.17424368	     97.21798071	      1.69677386	     19.04354408	      3.83388389	      0.00000000	      0.00000000	    -46.44223505	     -8.39531255	    -13.77866481	     59.97235344	     -3.01900554	     25.23950292	     23.85039808	     46.31463445	      0.00000000	      0.00000000	     52.20919603	    -10.74861670	     21.79264065	     63.10673157	     47.92021821	      0.00000000	      0.00000000
      7.52000000	    -25.77900073	      4.88080957	     13.09210163	      0.39481823	      1.08536711	     -0.23775397	      0.00000000	      0.50000000	      0.00000000	      0.25000000	     32.07048217	    -13.52294080	     -2.69109316	     44.67426172	      0.77971296	    -20.27252876	     -5.11297187	      0.00000000	      0.00000000	     76.03612634	      3.87348283	     -0.01471089	     94.99407596	      1.65795940	     19.92341528	      3.22491399	      0.00000000	      0.00000000	    -46.67587021	     -8.18493941	    -13.39520234	     60.34916209	     -3.24522975	     25.16462947	     23.55202545	     46.26113965	      0.00000000	      0.00000000	     52.30138185	    -10.21630768	     21.55460373	     63.19908439	     47.90630573	      0.00000000	      0.00000000
      7.52500000	    -25.48062832	      4.29903824	     13.05298435	      0.39506257	      1.08644834	     -0.23763402	      0.00000000	      0.50000000	      0.00000000	      0.25000000	     32.51854680	    -12.89146648	     -2.58574814	     47.04811346	      0.82114449	    -19.91621205	     -5.19084049	      0.00000000	      0.00000000	     74.85160450	      3.63122328	      0.25159898	     92.61894096	      1.61650547	     20.38372868	      2.85216774	      0.00000000	      0.00000000	    -46.79711800	     -8.01906237	    -12.88471656	     60.86785632	     -3.08845609	     25.38279266	     21.80110259	     46.11843333	      0.00000000	      0.00000000	     52.31393577	     -8.82765263	     19.90155956	     62.39912399	     47.58409705	      0.00000000	      0.00000000
      7.53000000	    -25.13410094	      3.51441002	     12.99900897	      0.39524510	      1.08726111	     -0.23751711	      0.00000000	      0.50000000	      0.00000000	      0.25000000	     32.97396644	    -12.05239634	     -2.60387790	     49.49082754	      0.86377789	    -19.66292482	     -5.50968198	      0.00000000	      0.00000000	     73.65113767	      3.26984824	      0.79186334	     90.26884038	      1.57548848	     20.86342136	      2.74668400	      0.00000000	      0.00000000	    -46.94420311	     -7.61245951	    -12.43421905	     61.00565125	     -3.07934171	     25.43192996	     21.70057474	     46.11757672	      0.00000000	      0.00000000	     52.24604628	     -8.77478825	     19.83500313	     62.45623844	     47.58660643	      0.00000000	      0.00000000
      7.53500000	    -24.78408927	      2.76425047	     12.90791442	      0.39546525	      1.08792189	     -0.23747172	      0.00000000	      0.50000000	      0.00000000	      0.25000000	     33.48088855	    -11.27454437	     -2.74582619	     51.87902119	      0.90545973	    -19.45173010	     -5.80781162	      0.00000000	      0.00000000	     72.39943818	      2.82470667	      1.22367762	     87.84443421	      1.53317461	     21.03626620	      2.62901129	      0.00000000	      0.00000000	    -47.06518352	     -7.25129955	    -11.93870945	     61.13687202	     -3.08296474	     25.50691538	     21.52273450	     46.10913645	      0.00000000	      0.00000000	     52.18378853	     -8.67531013	     19.73007727	     62.50740548	     47.58378337	      0.00000000	      0.00000000
      7.54000000	    -24.50006829	      1.99186533	     12.76614368	      0.39571352	      1.08842359	     -0.23748237	      0.00000000	      0.50000000	      0.00000000	      0.25000000	     34.08618910	    -10.48082565	     -2.86324198	     54.28985562	      0.94753673	    -19.15746190	     -5.99290978	      0.00000000	      0.00000000	     71.18049002	      2.26741328	      1.58490413	     85.36389002	      1.48988094	     21.00621494	      2.61307342	      0.00000000	      0.00000000	    -47.12354487	     -6.87763908	    -11.39293494	     61.30067670	     -3.07347705	     25.62896264	     21.23923119	     46.09342445	      0.00000000	      0.00000000	     52.10934444	     -8.54766085	     19.58564979	     62.52498391	     47.57094093	      0.00000000	      0.00000000
      7.54500000	    -24.20969468	      1.26147989	     12.54026996	      0.39604440	      1.08878561	     -0.23746175	      0.00000000	      0.50000000	      0.00000000	      0.25000000	     34.75490623	     -9.74141746	     -2.98027982	     56.75501662	      0.99056191	    -18.85575406	     -5.97328559	      0.00000000	      0.00000000	     69.94399064	      1.62688322	      1.97641684	     82.88863344	      1.44667957	     20.83322067	      3.04152756	      0.00000000	      0.00000000	    -47.16236856	     -6.57676667	    -10.82775856	     61.49673041	     -2.97157934	     25.86590701	     20.68282240	     46.06062740	      0.00000000	      0.00000000	     52.02520040	     -8.41800188	     19.40054503	     62.46698762	     47.54012379	      0.00000000	      0.00000000
      7.55000000	    -23.88682496	      0.46859972	     12.27638419	      0.39634329	      1.08898511	     -0.23732266	      0.00000000	      0.50000000	      0.00000000	      0.25000000	     35.42613240	     -8.92912100	     -3.17647943	     59.23896539	      1.03391499	    -18.50879987	     -6.11099607	      0.00000000	      0.00000000	     68.71413967	      0.80652057	      2.26373340	     80.43914438	      1.40392792	     20.29756143	      3.33293573	      0.00000000	      0.00000000	    -47.17111775	     -6.15196345	    -10.20366340	     61.66899050	     -2.74692282	     26.07936744	     20.31908249	     46.04806746	      0.00000000	      0.00000000	     51.92715540	     -8.45222461	     19.30688377	     62.38225176	     47.51576156	      0.00000000	      0.00000000
      7.55500000	    -23.48981080	     -0.23438989	     11.98471425	      0.39651854	      1.08931290	     -0.23741758	      0.00000000	      0.50000000	      0.00000000	      0.25000000	     36.02589540	     -8.22298736	     -3.33878774	     61.68576636	      1.07661972	    -18.06644367	     -5.89973623	      0.00000000	      0.00000000	     67.34019743	      0.11078968	      2.63042979	     77.97556311	      1.36093031	     19.66025161	      3.38386333	      0.00000000	      0.00000000	    -47.15333816	     -5.73814744	     -9.84367896	     63.13724366	     -1.58081926	     28.02146415	     16.44502901	     45.82998373	      0.00000000	      0.00000000	     51.90507003	     -8.73563260	     19.29809125	     61.78586600	     47.39786871	      0.00000000	      0.00000000
      7.56000000	    -23.03416529	     -0.99979722	     11.74058070	      0.39661071	      1.08952750	     -0.23743454	      0.00000000	      0.50000000	      0.00000000	      0.25000000	     36.58434127	     -7.48623707	     -3.62030411	     64.10592051	      1.11885938	    -17.70406636	     -6.03969915	      0.00000000	      0.00000000	     65.94605879	     -0.64596966	      3.05656106	     75.57165092	      1.31897413	     18.86017141	      3.73305254	      0.00000000	      0.00000000	    -47.33445849	     -5.26513757	     -9.25983095	     63.37375726	     -1.43255427	     28.14206010	     16.45794917	     45.84782600	      0.00000000	      0.00000000	     51.87347593	     -8.92995550	     19.27288061	     61.82104092	     47.40079040	      0.00000000	      0.00000000
      7.56500000	    -22.98799506	     -1.75974716	     11.12687436	      0.39735964	      1.08903595	     -0.23733584	      0.00000000	      0.50000000	      0.00000000	      0.25000000	     37.59109372	     -6.60316985	     -3.52207003	     66.53707688	      1.16129107	    -17.06951978	     -6.05188108	      0.00000000	      0.00000000	     64.87758671	     -1.72981010	      3.11906250	     73.23965596	      1.27827314	     18.03257209	      4.02618368	      0.00000000	      0.00000000	    -47.04887500	     -5.05339467	     -8.58619836	     63.36009774	     -1.19043051	     28.28420903	     16.25365721	     45.84032400	      0.00000000	      0.00000000	     51.62636024	     -9.26474415	     19.35163152	     61.79763522	     47.40764877	      0.00000000	      0.00000000
      7.57000000	    -22.70419329	     -2.30470481	     10.69811262	      0.39746350	      1.08893581	     -0.23784203	      0.00000000	      0.50000000	      0.00000000	      0.25000000	     38.37140651	     -6.12469226	     -3.56242797	     69.02779707	      1.20476233	    -16.22914615	     -5.44990155	      0.00000000	      0.00000000	     63.47467079	     -2.39315568	      3.29767422	     70.83005946	      1.23621775	     17.02720240	      3.96448138	      0.00000000	      0.00000000	    -47.01509737	     -4.76546618	     -8.15190915	     63.79215237	     -0.66834615	     28.55192886	     15.42381417	     45.70350358	      0.00000000	      0.00000000	     51.59937993	     -9.97523040	     20.09360488	     61.70860245	     47.46077959	      0.00000000	      0.00000000
